<?xml version="1.0" encoding="UTF-8"?>
<svg xmlns="http://www.w3.org/2000/svg" xmlns:xlink="http://www.w3.org/1999/xlink" width="32px" height="32px" viewBox="0 0 32 32" version="1.1">
<a href="/posts/index.xml">
<defs>
<linearGradient id="linear0" gradientUnits="userSpaceOnUse" x1="0.085" y1="0.085" x2="0.915" y2="0.915" gradientTransform="matrix(29.5,0,0,29.5,1.25,1.25)">
<stop offset="0" style="stop-color:rgb(89.019608%,43.921569%,17.647059%);stop-opacity:1;"/>
<stop offset="0.1071" style="stop-color:rgb(91.764706%,49.019608%,19.215686%);stop-opacity:1;"/>
<stop offset="0.3503" style="stop-color:rgb(96.470588%,58.431373%,21.568627%);stop-opacity:1;"/>
<stop offset="0.5" style="stop-color:rgb(98.431373%,61.960784%,22.745098%);stop-opacity:1;"/>
<stop offset="0.7016" style="stop-color:rgb(91.764706%,48.627451%,19.215686%);stop-opacity:1;"/>
<stop offset="0.8866" style="stop-color:rgb(87.058824%,39.215686%,16.862745%);stop-opacity:1;"/>
<stop offset="1" style="stop-color:rgb(85.098039%,35.686275%,16.078431%);stop-opacity:1;"/>
</linearGradient>
</defs>
<g id="surface1">
<path style=" stroke:none;fill-rule:nonzero;fill:rgb(80%,36.470588%,8.235294%);fill-opacity:1;" d="M 6.875 0 L 25.125 0 C 28.921875 0 32 3.078125 32 6.875 L 32 25.125 C 32 28.921875 28.921875 32 25.125 32 L 6.875 32 C 3.078125 32 0 28.921875 0 25.125 L 0 6.875 C 0 3.078125 3.078125 0 6.875 0 Z M 6.875 0 "/>
<path style=" stroke:none;fill-rule:nonzero;fill:rgb(95.686275%,61.176471%,32.156863%);fill-opacity:1;" d="M 6.875 0.625 L 25.125 0.625 C 28.578125 0.625 31.375 3.421875 31.375 6.875 L 31.375 25.125 C 31.375 28.578125 28.578125 31.375 25.125 31.375 L 6.875 31.375 C 3.421875 31.375 0.625 28.578125 0.625 25.125 L 0.625 6.875 C 0.625 3.421875 3.421875 0.625 6.875 0.625 Z M 6.875 0.625 "/>
<path style=" stroke:none;fill-rule:nonzero;fill:url(#linear0);" d="M 7.125 1.25 L 24.875 1.25 C 28.121094 1.25 30.75 3.878906 30.75 7.125 L 30.75 24.875 C 30.75 28.121094 28.121094 30.75 24.875 30.75 L 7.125 30.75 C 3.878906 30.75 1.25 28.121094 1.25 24.875 L 1.25 7.125 C 1.25 3.878906 3.878906 1.25 7.125 1.25 Z M 7.125 1.25 "/>
<path style=" stroke:none;fill-rule:nonzero;fill:rgb(100%,100%,100%);fill-opacity:1;" d="M 11.5 23.625 C 11.5 25.28125 10.15625 26.625 8.5 26.625 C 6.84375 26.625 5.5 25.28125 5.5 23.625 C 5.5 21.96875 6.84375 20.625 8.5 20.625 C 10.15625 20.625 11.5 21.96875 11.5 23.625 Z M 11.5 23.625 "/>
<path style=" stroke:none;fill-rule:nonzero;fill:rgb(100%,100%,100%);fill-opacity:1;" d="M 20 26.625 L 15.75 26.625 C 15.75 20.964844 11.160156 16.375 5.5 16.375 L 5.5 12.125 C 13.507812 12.125 20 18.617188 20 26.625 Z M 20 26.625 "/>
<path style=" stroke:none;fill-rule:nonzero;fill:rgb(100%,100%,100%);fill-opacity:1;" d="M 23 26.625 C 23 16.960938 15.164062 9.125 5.5 9.125 L 5.5 4.75 C 17.582031 4.75 27.375 14.542969 27.375 26.625 Z M 23 26.625 "/>
</g>
</a>
</svg>
