<?xml version="1.0" standalone="no"?>
<!DOCTYPE svg PUBLIC "-//W3C//DTD SVG 20010904//EN"
 "http://www.w3.org/TR/2001/REC-SVG-20010904/DTD/svg10.dtd">
<svg version="1.0" xmlns="http://www.w3.org/2000/svg"
 width="680.000000pt" height="680.000000pt" viewBox="0 0 680.000000 680.000000"
 preserveAspectRatio="xMidYMid meet">
<metadata>
Created by potrace 1.14, written by Peter Selinger 2001-2017
</metadata>
<g transform="translate(0.000000,680.000000) scale(0.100000,-0.100000)"
fill="#000000" stroke="none">
<path d="M238 6380 c-15 -4 -29 -5 -32 -2 -3 3 -6 1 -6 -5 0 -6 -10 -13 -23
-17 -40 -10 -111 -81 -142 -142 l-30 -59 -2 -2750 -2 -2750 26 -55 c34 -71
109 -143 176 -169 52 -20 72 -20 3199 -20 3139 -1 3148 -1 3202 19 70 27 138
87 170 152 l26 52 0 2766 0 2766 -26 51 c-30 61 -88 117 -153 147 l-46 21
-3155 2 c-1735 1 -3167 -2 -3182 -7z"/>
</g>
</svg>
